<?xml version="1.0" encoding="UTF-8"?>
<svg width="93px" height="55px" viewBox="0 0 93 55" version="1.1" xmlns="http://www.w3.org/2000/svg" xmlns:xlink="http://www.w3.org/1999/xlink">
    <!-- Generator: Sketch 48.2 (47327) - http://www.bohemiancoding.com/sketch -->
    <title>assmca-logo</title>
    <desc>Created with Sketch.</desc>
    <defs></defs>
    <g id="Menu-/-Charlas" stroke="none" stroke-width="1" fill="none" fill-rule="evenodd" transform="translate(-46.000000, -18.000000)">
        <g id="assmca-logo" transform="translate(46.000000, 17.000000)">
            <path d="M8.41185468,47.4802632 L8.34764205,47.4802632 C8.30483341,47.7653523 7.95166747,48.0504372 7.28813363,48.3355263 L4.88015997,49.3223684 C4.19522181,49.6074576 3.6708239,50.0076729 3.3069505,50.5230263 C2.94307711,51.0383798 2.76114314,51.6798207 2.76114314,52.4473684 C2.76114314,52.7763174 2.79324913,53.1162263 2.85746209,53.4671053 C2.92167504,53.8179842 3.03939702,54.1304811 3.21063156,54.4046053 C3.3818661,54.6787294 3.62266105,54.9035079 3.93302366,55.0789474 C4.24338626,55.2543868 4.64471119,55.3421053 5.13701049,55.3421053 C5.84335296,55.3421053 6.41590987,55.188598 6.85469837,54.8815789 C7.29348688,54.5745599 7.62524882,54.1907918 7.84999415,53.7302632 C8.07473949,53.2697345 8.22456746,52.770836 8.29948257,52.2335526 C8.37439768,51.6962692 8.41185468,51.2083355 8.41185468,50.7697368 L8.41185468,47.4802632 Z M14.0304599,55.1776316 C13.7522038,55.3969309 13.4204418,55.588815 13.0351641,55.7532895 C12.6498864,55.917764 12.1789985,56 11.6224862,56 C10.595079,56 9.85129013,55.7752215 9.3910973,55.3256579 C8.93090448,54.8760942 8.61519553,54.2456181 8.44396099,53.4342105 L8.37974836,53.4342105 C8.29413109,53.6315799 8.17640911,53.878288 8.02657889,54.1743421 C7.87674867,54.4703962 7.64665571,54.7554811 7.33629311,55.0296053 C7.0259305,55.3037294 6.61390357,55.5339903 6.10019996,55.7203947 C5.58649634,55.9067992 4.93367445,56 4.14171471,56 C3.24273338,56 2.5256995,55.8958344 1.99059156,55.6875 C1.45548363,55.4791656 1.0381057,55.2214928 0.738445258,54.9144737 C0.438784814,54.6074546 0.240797848,54.2620633 0.14447842,53.8782895 C0.0481589917,53.4945156 0,53.1381595 0,52.8092105 C0,52.0416628 0.149827974,51.4276339 0.449488418,50.9671053 C0.749148861,50.5065766 1.13977179,50.1392558 1.62136894,49.8651316 C2.10296608,49.5910074 2.63806599,49.3662289 3.22668471,49.1907895 C3.81530344,49.01535 4.40926434,48.8289484 5.00858523,48.6315789 C5.7149277,48.3903497 6.2981866,48.1820184 6.75837943,48.0065789 C7.21857225,47.8311395 7.57708919,47.6173258 7.833941,47.3651316 C8.09079281,47.1129373 8.26737578,46.7949581 8.3636952,46.4111842 C8.46001463,46.0274104 8.50817362,45.5065822 8.50817362,44.8486842 C8.50817362,44.3223658 8.47606763,43.8508793 8.41185468,43.4342105 C8.34764173,43.0175418 8.22991975,42.6611857 8.05868521,42.3651316 C7.88745067,42.0690775 7.64130471,41.844299 7.32023995,41.6907895 C6.99917519,41.5372799 6.57109526,41.4605263 6.03598733,41.4605263 C5.32964485,41.4605263 4.74638595,41.5866215 4.28619313,41.8388158 C3.8260003,42.09101 3.59590734,42.5021901 3.59590734,43.0723684 C3.59590734,43.4451773 3.62801334,43.8124982 3.69222629,44.1743421 C3.75643924,44.536186 3.78854524,44.8048237 3.78854524,44.9802632 C3.78854524,45.2872822 3.68152525,45.5449551 3.46748208,45.7532895 C3.25343891,45.9616238 2.94308096,46.0657895 2.53639893,46.0657895 C1.83005646,46.0657895 1.39127453,45.9342118 1.22003999,45.6710526 C1.04880545,45.4078934 0.963189467,45.0679845 0.963189467,44.6513158 C0.963189467,44.1688572 1.07020945,43.7083355 1.28425262,43.2697368 C1.4982958,42.8311382 1.81400474,42.4418877 2.23138893,42.1019737 C2.64877312,41.7620597 3.17317103,41.493422 3.80459839,41.2960526 C4.43602576,41.0986832 5.15841063,41 5.97177469,41 C6.95637329,41 7.78042715,41.1260952 8.44396099,41.3782895 C9.10749483,41.6304837 9.64259474,41.9703926 10.0492768,42.3980263 C10.4559588,42.82566 10.7449128,43.3081113 10.9161473,43.8453947 C11.0873818,44.3826781 11.1729978,44.9473655 11.1729978,45.5394737 L11.1729978,53.7302632 C11.1729978,54.3662312 11.2693158,54.7938586 11.4619547,55.0131579 C11.6545935,55.2324572 11.9328455,55.3421053 12.2967189,55.3421053 C12.5321664,55.3421053 12.7783123,55.2982461 13.0351641,55.2105263 C13.2920159,55.1228066 13.5381619,54.9912289 13.7736094,54.8157895 L14.0304599,55.1776316 Z M14.0839703,50.9342105 L14.4371398,50.9342105 C14.58697,51.4605289 14.779606,51.9923219 15.0150535,52.5296053 C15.250501,53.0668887 15.5662099,53.5603048 15.9621898,54.0098684 C16.3581697,54.4594321 16.8451106,54.826753 17.4230272,55.1118421 C18.0009437,55.3969312 18.6965736,55.5394737 19.5099377,55.5394737 C20.1948758,55.5394737 20.8048897,55.32566 21.3399977,54.8980263 C21.8751056,54.4703926 22.1426556,53.7741276 22.1426556,52.8092105 C22.1426556,51.975873 21.9339666,51.3892561 21.5165824,51.0493421 C21.0991982,50.7094281 20.6122573,50.4407905 20.055745,50.2434211 L17.5514524,49.3552632 C17.2303877,49.2456135 16.8825727,49.1085535 16.5079972,48.9440789 C16.1334216,48.7796044 15.7856067,48.5493436 15.4645419,48.2532895 C15.1434772,47.9572354 14.8812782,47.5789497 14.6779372,47.1184211 C14.4745962,46.6578924 14.3729272,46.0657931 14.3729272,45.3421053 C14.3729272,44.7280671 14.4906492,44.1578974 14.7260967,43.6315789 C14.9615441,43.1052605 15.2826041,42.6447388 15.6892861,42.25 C16.0959682,41.8552612 16.5829091,41.5482467 17.1501235,41.3289474 C17.7173379,41.109648 18.3327028,41 18.9962366,41 C19.4671316,41 19.8470525,41.0383768 20.1360108,41.1151316 C20.4249691,41.1918863 20.6764661,41.26864 20.8905092,41.3453947 C21.1045524,41.4221495 21.2971884,41.4989031 21.4684229,41.5756579 C21.6396575,41.6524127 21.8429954,41.6907895 22.0784429,41.6907895 C22.3138904,41.6907895 22.4851224,41.6030711 22.592144,41.4276316 L22.9453134,41.4276316 L22.9453134,45.1776316 L22.592144,45.1776316 C22.4423137,44.695173 22.2710818,44.2291689 22.0784429,43.7796053 C21.8858041,43.3300416 21.6557111,42.9298263 21.3881571,42.5789474 C21.1206032,42.2280684 20.7888412,41.9539484 20.3928614,41.7565789 C19.9968815,41.5592095 19.5313446,41.4605263 18.9962366,41.4605263 C17.9688294,41.4605263 17.1715305,41.6962696 16.6043161,42.1677632 C16.0371017,42.6392567 15.7534988,43.2697329 15.7534988,44.0592105 C15.7534988,44.7609684 15.9942937,45.2927613 16.4758909,45.6546053 C16.957488,46.0164492 17.6691709,46.3508757 18.6109608,46.6578947 L20.9547219,47.4473684 C21.9607248,47.7982474 22.7847787,48.2806987 23.4269082,48.8947368 C24.0690377,49.508775 24.3900976,50.3201704 24.3900976,51.3289474 C24.3900976,51.9210556 24.2777267,52.5021901 24.0529813,53.0723684 C23.828236,53.6425467 23.4964741,54.1414452 23.0576855,54.5690789 C22.618897,54.9967127 22.0837971,55.3421039 21.4523698,55.6052632 C20.8209424,55.8684224 20.0985575,56 19.2851935,56 C18.8142985,56 18.3808676,55.9506584 17.9848877,55.8519737 C17.5889078,55.753289 17.2250399,55.6491234 16.893273,55.5394737 C16.561506,55.429824 16.2564991,55.3256584 15.978243,55.2269737 C15.6999868,55.128289 15.4431389,55.0789474 15.2076914,55.0789474 C14.9722439,55.0789474 14.8010119,55.128289 14.6939903,55.2269737 C14.5869688,55.3256584 14.5013528,55.429824 14.4371398,55.5394737 L14.0839703,55.5394737 L14.0839703,50.9342105 Z M25.9204986,50.9342105 L26.2736681,50.9342105 C26.4234983,51.4605289 26.6161343,51.9923219 26.8515818,52.5296053 C27.0870292,53.0668887 27.4027382,53.5603048 27.7987181,54.0098684 C28.1946979,54.4594321 28.6816388,54.826753 29.2595554,55.1118421 C29.837472,55.3969312 30.5331019,55.5394737 31.3464659,55.5394737 C32.0314041,55.5394737 32.641418,55.32566 33.1765259,54.8980263 C33.7116339,54.4703926 33.9791838,53.7741276 33.9791838,52.8092105 C33.9791838,51.975873 33.7704948,51.3892561 33.3531107,51.0493421 C32.9357265,50.7094281 32.4487855,50.4407905 31.8922733,50.2434211 L29.3879807,49.3552632 C29.0669159,49.2456135 28.719101,49.1085535 28.3445254,48.9440789 C27.9699499,48.7796044 27.6221349,48.5493436 27.3010702,48.2532895 C26.9800054,47.9572354 26.7178065,47.5789497 26.5144654,47.1184211 C26.3111244,46.6578924 26.2094554,46.0657931 26.2094554,45.3421053 C26.2094554,44.7280671 26.3271774,44.1578974 26.5626249,43.6315789 C26.7980724,43.1052605 27.1191323,42.6447388 27.5258144,42.25 C27.9324964,41.8552612 28.4194373,41.5482467 28.9866517,41.3289474 C29.5538661,41.109648 30.169231,41 30.8327649,41 C31.3036599,41 31.6835808,41.0383768 31.9725391,41.1151316 C32.2614974,41.1918863 32.5129943,41.26864 32.7270375,41.3453947 C32.9410807,41.4221495 33.1337166,41.4989031 33.3049512,41.5756579 C33.4761857,41.6524127 33.6795237,41.6907895 33.9149712,41.6907895 C34.1504187,41.6907895 34.3216506,41.6030711 34.4286722,41.4276316 L34.7818417,41.4276316 L34.7818417,45.1776316 L34.4286722,45.1776316 C34.278842,44.695173 34.10761,44.2291689 33.9149712,43.7796053 C33.7223323,43.3300416 33.4922394,42.9298263 33.2246854,42.5789474 C32.9571314,42.2280684 32.6253695,41.9539484 32.2293896,41.7565789 C31.8334097,41.5592095 31.3678728,41.4605263 30.8327649,41.4605263 C29.8053576,41.4605263 29.0080588,41.6962696 28.4408444,42.1677632 C27.87363,42.6392567 27.590027,43.2697329 27.590027,44.0592105 C27.590027,44.7609684 27.830822,45.2927613 28.3124191,45.6546053 C28.7940163,46.0164492 29.5056991,46.3508757 30.4474891,46.6578947 L32.7912501,47.4473684 C33.797253,47.7982474 34.6213069,48.2806987 35.2634364,48.8947368 C35.905566,49.508775 36.2266259,50.3201704 36.2266259,51.3289474 C36.2266259,51.9210556 36.1142549,52.5021901 35.8895096,53.0723684 C35.6647642,53.6425467 35.3330023,54.1414452 34.8942138,54.5690789 C34.4554253,54.9967127 33.9203254,55.3421039 33.288898,55.6052632 C32.6574707,55.8684224 31.9350858,56 31.1217217,56 C30.6508267,56 30.2173958,55.9506584 29.8214159,55.8519737 C29.4254361,55.753289 29.0615681,55.6491234 28.7298012,55.5394737 C28.3980343,55.429824 28.0930273,55.3256584 27.8147712,55.2269737 C27.5365151,55.128289 27.2796671,55.0789474 27.0442196,55.0789474 C26.8087722,55.0789474 26.6375402,55.128289 26.5305186,55.2269737 C26.423497,55.3256584 26.337881,55.429824 26.2736681,55.5394737 L25.9204986,55.5394737 L25.9204986,50.9342105 Z M36.6011995,55.0789474 L39.0733858,55.0789474 L39.0733858,41.8881579 L36.6011995,41.8881579 L36.6011995,41.4276316 L41.7703163,41.4276316 L41.7703163,44.8815789 L41.8345289,44.8815789 C42.2840196,43.5657829 42.9314905,42.6008803 43.776961,41.9868421 C44.6224316,41.3728039 45.6444724,41.0657895 46.8431142,41.0657895 C47.91333,41.0657895 48.8604569,41.3070151 49.6845231,41.7894737 C50.5085893,42.2719322 51.0490402,43.0723628 51.305892,44.1907895 L51.3701047,44.1907895 C51.5199349,43.7960507 51.7232728,43.4122826 51.9801247,43.0394737 C52.2369765,42.6666648 52.5580364,42.3322383 52.9433141,42.0361842 C53.3285918,41.7401301 53.7834268,41.5043868 54.3078325,41.3289474 C54.8322383,41.1535079 55.4261992,41.0657895 56.089733,41.0657895 C59.2147634,41.0657895 60.7772551,42.6995451 60.7772551,45.9671053 L60.7772551,55.0789474 L63.2494414,55.0789474 L63.2494414,55.5394737 L55.5439257,55.5394737 L55.5439257,55.0789474 L58.016112,55.0789474 L58.016112,43.8947368 C58.016112,43.1491191 57.818125,42.5679845 57.4221451,42.1513158 C57.0261653,41.734647 56.4857144,41.5263158 55.8007762,41.5263158 C55.2656683,41.5263158 54.7305684,41.6304814 54.1954604,41.8388158 C53.6603525,42.0471502 53.1787626,42.359647 52.7506762,42.7763158 C52.3225899,43.1929845 51.9747749,43.7302599 51.707221,44.3881579 C51.439667,45.0460559 51.305892,45.8135921 51.305892,46.6907895 L51.305892,55.0789474 L53.7780783,55.0789474 L53.7780783,55.5394737 L46.0725626,55.5394737 L46.0725626,55.0789474 L48.5447489,55.0789474 L48.5447489,44.3552632 C48.5447489,43.3903461 48.3521129,42.6776339 47.9668352,42.2171053 C47.5815575,41.7565766 47.0678616,41.5263158 46.4257321,41.5263158 C45.9762414,41.5263158 45.4839495,41.6414462 44.9488415,41.8717105 C44.4137336,42.1019748 43.9160907,42.4638133 43.4558979,42.9572368 C42.995705,43.4506604 42.6104331,44.0921013 42.3000705,44.8815789 C41.9897079,45.6710566 41.8345289,46.6359592 41.8345289,47.7763158 L41.8345289,55.0789474 L44.3067152,55.0789474 L44.3067152,55.5394737 L36.6011995,55.5394737 L36.6011995,55.0789474 Z M76.3702223,51.9210526 C76.3060093,52.1622819 76.1829364,52.5076732 76.0009997,52.9572368 C75.819063,53.4068005 75.530109,53.8563574 75.1341291,54.3059211 C74.7381493,54.7554847 74.2030494,55.1502176 73.5288134,55.4901316 C72.8545774,55.8300456 71.9823645,56 70.9121486,56 C70.0987846,56 69.2533267,55.8684224 68.3757497,55.6052632 C67.4981727,55.3421039 66.6955228,54.919959 65.967776,54.3388158 C65.2400293,53.7576725 64.6460684,52.9956187 64.1858755,52.0526316 C63.7256827,51.1096444 63.4955898,49.9473753 63.4955898,48.5657895 C63.4955898,47.4912227 63.6935767,46.4934257 64.0895566,45.5723684 C64.4855365,44.6513112 65.0206364,43.8508806 65.6948724,43.1710526 C66.3691084,42.4912247 67.1610562,41.9594317 68.0707397,41.5756579 C68.9804232,41.191884 69.948954,41 70.9763613,41 C71.5542778,41 72.1482387,41.0712712 72.7582618,41.2138158 C73.3682848,41.3563604 73.9247887,41.5756564 74.4277902,41.8717105 C74.9307917,42.1677646 75.3481696,42.5515327 75.6799365,43.0230263 C76.0117034,43.4945199 76.1775844,44.070172 76.1775844,44.75 C76.1775844,45.2105286 76.0331074,45.5888143 75.7441491,45.8848684 C75.4551909,46.1809225 75.0431639,46.3289474 74.508056,46.3289474 C74.1441826,46.3289474 73.7963677,46.2467113 73.4646007,46.0822368 C73.1328338,45.9177623 72.9669528,45.6381599 72.9669528,45.2434211 C72.9669528,44.936402 73.0418668,44.5635987 73.191697,44.125 C73.3415273,43.6864013 73.4164413,43.3245628 73.4164413,43.0394737 C73.4164413,42.5350852 73.1702953,42.1458347 72.677996,41.8717105 C72.1856967,41.5975863 71.6184908,41.4605263 70.9763613,41.4605263 C70.5054663,41.4605263 70.0185254,41.5208327 69.5155239,41.6414474 C69.0125225,41.762062 68.5523365,42.0635941 68.1349523,42.5460526 C67.7175682,43.0285112 67.3751042,43.7521882 67.1075503,44.7171053 C66.8399963,45.6820224 66.7062213,46.9977987 66.7062213,48.6644737 C66.7062213,49.6074609 66.7650823,50.4956099 66.882806,51.3289474 C67.0005298,52.1622849 67.2145698,52.8914442 67.5249324,53.5164474 C67.835295,54.1414505 68.2633749,54.6348666 68.809185,54.9967105 C69.3549951,55.3585544 70.0666779,55.5394737 70.944255,55.5394737 C71.8860449,55.5394737 72.6619398,55.3969312 73.2719628,55.1118421 C73.8819859,54.826753 74.3635758,54.4813617 74.716747,54.0756579 C75.0699183,53.6699541 75.3321172,53.258774 75.5033518,52.8421053 C75.6745863,52.4254365 75.8030103,52.0855276 75.8886276,51.8223684 L76.3702223,51.9210526 Z M85.3813948,47.4802632 L85.3171821,47.4802632 C85.2743735,47.7653523 84.9212076,48.0504372 84.2576737,48.3355263 L81.8497001,49.3223684 C81.1647619,49.6074576 80.640364,50.0076729 80.2764906,50.5230263 C79.9126172,51.0383798 79.7306832,51.6798207 79.7306832,52.4473684 C79.7306832,52.7763174 79.7627892,53.1162263 79.8270022,53.4671053 C79.8912151,53.8179842 80.0089371,54.1304811 80.1801717,54.4046053 C80.3514062,54.6787294 80.5922012,54.9035079 80.9025638,55.0789474 C81.2129264,55.2543868 81.6142513,55.3421053 82.1065506,55.3421053 C82.8128931,55.3421053 83.38545,55.188598 83.8242385,54.8815789 C84.263027,54.5745599 84.5947889,54.1907918 84.8195343,53.7302632 C85.0442796,53.2697345 85.1941076,52.770836 85.2690227,52.2335526 C85.3439378,51.6962692 85.3813948,51.2083355 85.3813948,50.7697368 L85.3813948,47.4802632 Z M91,55.1776316 C90.7217439,55.3969309 90.3899819,55.588815 90.0047042,55.7532895 C89.6194265,55.917764 89.1485386,56 88.5920263,56 C87.5646191,56 86.8208302,55.7752215 86.3606374,55.3256579 C85.9004446,54.8760942 85.5847356,54.2456181 85.4135011,53.4342105 L85.3492885,53.4342105 C85.2636712,53.6315799 85.1459492,53.878288 84.996119,54.1743421 C84.8462888,54.4703962 84.6161958,54.7554811 84.3058332,55.0296053 C83.9954706,55.3037294 83.5834437,55.5339903 83.0697401,55.7203947 C82.5560364,55.9067992 81.9032146,56 81.1112548,56 C80.2122735,56 79.4952396,55.8958344 78.9601317,55.6875 C78.4250237,55.4791656 78.0076458,55.2214928 77.7079854,54.9144737 C77.4083249,54.6074546 77.2103379,54.2620633 77.1140185,53.8782895 C77.0176991,53.4945156 76.9695401,53.1381595 76.9695401,52.8092105 C76.9695401,52.0416628 77.1193681,51.4276339 77.4190285,50.9671053 C77.718689,50.5065766 78.1093119,50.1392558 78.590909,49.8651316 C79.0725062,49.5910074 79.6076061,49.3662289 80.1962248,49.1907895 C80.7848435,49.01535 81.3788044,48.8289484 81.9781253,48.6315789 C82.6844678,48.3903497 83.2677267,48.1820184 83.7279195,48.0065789 C84.1881123,47.8311395 84.5466293,47.6173258 84.8034811,47.3651316 C85.0603329,47.1129373 85.2369159,46.7949581 85.3332353,46.4111842 C85.4295547,46.0274104 85.4777137,45.5065822 85.4777137,44.8486842 C85.4777137,44.3223658 85.4456077,43.8508793 85.3813948,43.4342105 C85.3171818,43.0175418 85.1994598,42.6611857 85.0282253,42.3651316 C84.8569908,42.0690775 84.6108448,41.844299 84.28978,41.6907895 C83.9687153,41.5372799 83.5406354,41.4605263 83.0055274,41.4605263 C82.299185,41.4605263 81.7159261,41.5866215 81.2557332,41.8388158 C80.7955404,42.09101 80.5654474,42.5021901 80.5654474,43.0723684 C80.5654474,43.4451773 80.5975534,43.8124982 80.6617664,44.1743421 C80.7259793,44.536186 80.7580853,44.8048237 80.7580853,44.9802632 C80.7580853,45.2872822 80.6510654,45.5449551 80.4370222,45.7532895 C80.222979,45.9616238 79.9126211,46.0657895 79.505939,46.0657895 C78.7995966,46.0657895 78.3608146,45.9342118 78.1895801,45.6710526 C78.0183456,45.4078934 77.9327296,45.0679845 77.9327296,44.6513158 C77.9327296,44.1688572 78.0397495,43.7083355 78.2537927,43.2697368 C78.4678359,42.8311382 78.7835448,42.4418877 79.200929,42.1019737 C79.6183132,41.7620597 80.1427111,41.493422 80.7741385,41.2960526 C81.4055659,41.0986832 82.1279507,41 82.9413148,41 C83.9259134,41 84.7499673,41.1260952 85.4135011,41.3782895 C86.0770349,41.6304837 86.6121348,41.9703926 87.0188169,42.3980263 C87.4254989,42.82566 87.7144529,43.3081113 87.8856874,43.8453947 C88.0569219,44.3826781 88.1425379,44.9473655 88.1425379,45.5394737 L88.1425379,53.7302632 C88.1425379,54.3662312 88.2388559,54.7938586 88.4314948,55.0131579 C88.6241336,55.2324572 88.9023856,55.3421053 89.266259,55.3421053 C89.5017065,55.3421053 89.7478524,55.2982461 90.0047042,55.2105263 C90.261556,55.1228066 90.507702,54.9912289 90.7431495,54.8157895 L91,55.1776316 Z" id="assmca" fill="#000000"></path>
            <path d="M6.37962214,39.3903525 C8.84464248,38.3651455 29.1170788,25.1998665 51.7811865,25.6014777 C76.8963154,26.0465212 90.9787569,44.4149085 92.8229236,42.9126609 C94.6670904,41.4104133 82.2209518,17.6920265 50.1177804,18.0030316 C29.985625,18.1980654 14.3274109,26.4866983 5.87163038,30.4681191 C1.65089459,32.4554608 0.369786734,34.6324047 1.27449802,36.8749033 C2.17920931,39.1174019 5.14798962,39.9025909 6.37962214,39.3903525 Z" id="Oval" fill="#F8BF0C"></path>
            <path d="M17,10.9850317 C17.5665184,7.7130687 18.6198218,6.0519813 20.1599102,6.00176948 C22.4700428,5.92645176 24.5503513,8.27627544 24.8897135,9.0893493 C25.115955,9.63139854 26.1527171,11.9229646 28,15.9640475 C23.7364767,17.9880158 21.3639142,19 20.8823126,19 C20.400711,19 19.1066068,16.3283439 17,10.9850317 Z" id="Path-2" fill="#F8BF0C"></path>
            <path d="M39,6.98503168 C39.5665184,3.7130687 40.6198218,2.0519813 42.1599102,2.00176948 C44.4700428,1.92645176 46.5503513,4.27627544 46.8897135,5.0893493 C47.115955,5.63139854 48.1527171,7.9229646 50,11.9640475 C45.7364767,13.9880158 43.3639142,15 42.8823126,15 C42.400711,15 41.1066068,12.3283439 39,6.98503168 Z" id="Path-2" fill="#F8BF0C" transform="translate(44.500000, 8.500000) rotate(26.000000) translate(-44.500000, -8.500000) "></path>
            <path d="M62,9.98503168 C62.5665184,6.7130687 63.6198218,5.0519813 65.1599102,5.00176948 C67.4700428,4.92645176 69.5503513,7.27627544 69.8897135,8.0893493 C70.115955,8.63139854 71.1527171,10.9229646 73,14.9640475 C68.7364767,16.9880158 66.3639142,18 65.8823126,18 C65.400711,18 64.1066068,15.3283439 62,9.98503168 Z" id="Path-2-Copy" fill="#F8BF0C" transform="translate(67.500000, 11.500000) rotate(44.000000) translate(-67.500000, -11.500000) "></path>
            <path d="M79,15.9850317 C79.5665184,12.7130687 80.6198218,11.0519813 82.1599102,11.0017695 C84.4700428,10.9264518 86.5503513,13.2762754 86.8897135,14.0893493 C87.115955,14.6313985 88.1527171,16.9229646 90,20.9640475 C85.7364767,22.9880158 83.3639142,24 82.8823126,24 C82.400711,24 81.1066068,21.3283439 79,15.9850317 Z" id="Path-2-Copy" fill="#F8BF0C" transform="translate(84.500000, 17.500000) rotate(52.000000) translate(-84.500000, -17.500000) "></path>
            <path d="M2,18.9850317 C2.56651837,15.7130687 3.61982177,14.0519813 5.15991019,14.0017695 C7.47004283,13.9264518 9.55035134,16.2762754 9.88971353,17.0893493 C10.115955,17.6313985 11.1527171,19.9229646 13,23.9640475 C8.73647665,25.9880158 6.36391418,27 5.88231259,27 C5.40071099,27 4.10660679,24.3283439 2,18.9850317 Z" id="Path-2-Copy" fill="#F8BF0C" transform="translate(7.500000, 20.500000) rotate(-12.000000) translate(-7.500000, -20.500000) "></path>
        </g>
    </g>
</svg>